<svg width="24" height="24" viewBox="0 0 24 24" fill="none" xmlns="http://www.w3.org/2000/svg">
<g clip-path="url(#clip0_2_4)">
<rect width="24" height="24" fill="white"/>
<path fill-rule="evenodd" clip-rule="evenodd" d="M14.984 16.872C15.0973 16.7587 15.0973 16.576 14.984 16.464C14.872 16.352 14.688 16.352 14.5747 16.464C14.068 16.9667 13.2293 17.212 12.0093 17.212L11.9987 17.2147L11.988 17.212C10.7667 17.212 9.928 16.9667 9.42267 16.464C9.30933 16.352 9.12533 16.352 9.01333 16.464C8.9 16.576 8.9 16.7587 9.01333 16.8707C9.63333 17.488 10.6067 17.788 11.988 17.788L11.9987 17.7853L12.0093 17.788C13.392 17.788 14.364 17.488 14.984 16.872ZM9.168 12.0147C9.84533 12.0147 10.3973 12.564 10.3973 13.24C10.3973 13.916 9.84533 14.4653 9.168 14.464C8.48933 14.464 7.93733 13.9147 7.93733 13.24C7.93733 12.564 8.48933 12.0147 9.168 12.0147ZM12 -4C3.16344 -4 -4 3.16344 -4 12C-4 20.8366 3.16344 28 12 28C3.164 28 -4 20.836 -4 12C-4 3.164 3.164 -4 12 -4ZM19.2667 9.77067C20.4067 9.77067 21.3333 10.6933 21.3333 11.828C21.3333 12.6107 20.888 13.284 20.24 13.632C20.276 13.8387 20.2987 14.048 20.2987 14.2613C20.2987 17.3027 16.5587 19.7773 11.9613 19.7773C7.364 19.7773 3.624 17.3027 3.624 14.2613C3.624 14.036 3.65067 13.8133 3.69067 13.5947C3.08133 13.236 2.66667 12.5827 2.66667 11.828C2.66667 10.6933 3.59333 9.77067 4.732 9.76933C5.27333 9.76933 5.76267 9.98267 6.132 10.3227C7.60267 9.36933 9.60133 8.77467 11.8093 8.748L13.096 4.69733C13.1413 4.55333 13.292 4.468 13.4387 4.504L16.8053 5.29333C17.052 4.668 17.6613 4.22133 18.3773 4.22133C19.3093 4.22133 20.0667 4.976 20.0667 5.904C20.0667 6.832 19.3093 7.58667 18.3773 7.58667C17.4453 7.58667 16.6867 6.832 16.6867 5.904L16.6907 5.85867L13.5667 5.12667L12.4133 8.75867C14.5213 8.83467 16.4267 9.424 17.8347 10.3507C18.2067 9.99333 18.7107 9.77067 19.2667 9.77067ZM13.608 13.2413C13.608 12.5653 14.1587 12.016 14.8373 12.016C15.516 12.016 16.0667 12.5653 16.0667 13.2413C16.0667 13.916 15.5147 14.4653 14.8373 14.4653C14.16 14.4653 13.608 13.916 13.608 13.2413Z" fill="black"/>
</g>
<defs>
<clipPath id="clip0_2_4">
<rect width="24" height="24" fill="white"/>
</clipPath>
</defs>
</svg>
